<?xml version="1.0" encoding="UTF-8"?>
<svg width="511px" height="89px" viewBox="0 0 511 89" version="1.1" xmlns="http://www.w3.org/2000/svg" xmlns:xlink="http://www.w3.org/1999/xlink">
    <!-- Generator: Sketch 51.3 (57544) - http://www.bohemiancoding.com/sketch -->
    <title>leaflink_horiz_fullcolor_rgb</title>
    <desc>Created with Sketch.</desc>
    <defs>
        <polygon id="path-1" points="0 89 510.519 89 510.519 0.404 0 0.404"></polygon>
    </defs>
    <g id="leaflink_horiz_fullcolor_rgb" stroke="none" stroke-width="1" fill="none" fill-rule="evenodd">
        <polygon id="Fill-1" fill="#0079FF" points="126.1187 2.346 141.1187 2.346 141.1187 86.946 126.1187 86.946"></polygon>
        <g id="Group-24" transform="translate(0.000000, -0.404000)">
            <path d="M195.7187,52.95 C193.8187,44.65 187.6187,41.25 181.3187,41.25 C173.3187,41.25 167.9187,45.55 166.1187,52.95 L195.7187,52.95 Z M182.7187,75.35 C188.5187,75.35 193.1187,72.95 195.7187,69.55 L207.8187,76.55 C202.3187,84.35 193.6187,88.85 182.5187,88.85 C163.0187,88.85 150.7187,75.55 150.7187,58.25 C150.7187,40.95 163.1187,27.65 181.3187,27.65 C198.4187,27.65 210.6187,41.25 210.6187,58.25 C210.6187,60.35 210.4187,62.35 210.0187,64.35 L166.3187,64.35 C168.4187,72.15 174.8187,75.35 182.7187,75.35 Z" id="Fill-2" fill="#0079FF"></path>
            <path d="M264.6187,58.35 C264.6187,48.65 257.8187,42.05 248.5187,42.05 C239.2187,42.05 232.5187,48.65 232.5187,58.35 C232.5187,68.05 239.3187,74.65 248.5187,74.65 C257.6187,74.75 264.6187,68.05 264.6187,58.35 Z M279.6187,29.35 L279.6187,87.25 L264.6187,87.25 L264.6187,80.45 C260.5187,85.65 254.2187,88.95 245.8187,88.95 C230.4187,88.95 217.6187,75.65 217.6187,58.35 C217.6187,41.05 230.4187,27.75 245.8187,27.75 C254.3187,27.75 260.5187,30.95 264.7187,36.25 L264.7187,29.45 L279.6187,29.45 L279.6187,29.35 Z" id="Fill-4" fill="#0079FF"></path>
            <path d="M320.7187,18.95 C312.9187,18.35 308.4187,20.95 308.4187,28.85 L308.4187,29.45 L320.7187,29.45 L320.7187,43.85 L308.4187,43.85 L308.4187,87.45 L293.4187,87.45 L293.4187,28.85 C293.4187,18.65 297.0187,11.05 304.4187,7.25 C304.4187,7.25 311.8187,2.95 324.4187,5.35 L320.7187,18.95 Z" id="Fill-6" fill="#0079FF"></path>
            <mask id="mask-2" fill="white">
                <use xlink:href="#path-1"></use>
            </mask>
            <g id="Clip-9"></g>
            <polygon id="Fill-8" fill="#1DE0AD" mask="url(#mask-2)" points="334.119 87.35 349.119 87.35 349.119 2.75 334.119 2.75"></polygon>
            <path d="M362.719,87.25 L377.719,87.25 L377.719,29.35 L362.719,29.35 L362.719,87.25 Z M361.019,13.25 C361.019,8.15 365.119,4.05 370.219,4.05 C375.319,4.05 379.419,8.15 379.419,13.25 C379.419,18.35 375.319,22.45 370.219,22.45 C365.119,22.45 361.019,18.35 361.019,13.25 Z" id="Fill-10" fill="#1DE0AD" mask="url(#mask-2)"></path>
            <path d="M445.5187,51.75 L445.5187,87.35 L430.5187,87.35 L430.5187,53.65 C430.5187,45.75 425.7187,41.75 419.0187,41.75 C411.7187,41.75 406.2187,46.05 406.2187,56.15 L406.2187,87.45 L391.2187,87.45 L391.2187,29.35 L406.2187,29.35 L406.2187,35.85 C409.7187,30.65 415.7187,27.75 423.5187,27.75 C435.8187,27.75 445.5187,36.35 445.5187,51.75" id="Fill-11" fill="#1DE0AD" mask="url(#mask-2)"></path>
            <polygon id="Fill-12" fill="#1DE0AD" mask="url(#mask-2)" points="493.1187 87.35 472.0187 61.05 472.0187 87.35 457.0187 87.35 457.0187 6.15 472.0187 6.15 472.0187 54.85 491.9187 29.35 509.8187 29.35 486.5187 57.95 510.5187 87.25"></polygon>
            <path d="M47.4156,21.8046 L38.5966,34.2676 L38.5966,18.6436 C38.6016,15.8966 40.8316,13.6736 43.5776,13.6786 C46.3246,13.6826 48.5476,15.9126 48.5436,18.6596 C48.5416,19.8066 48.1426,20.9176 47.4156,21.8046 M60.9556,19.4996 C61.1946,9.2496 53.0796,0.7476 42.8296,0.5086 C32.5796,0.2696 24.0776,8.3846 23.8386,18.6346 C23.8316,18.9226 23.8316,19.2106 23.8386,19.4996 L23.8386,54.7946 L-0.0004,87.8646 L16.5296,87.8646 L23.8386,77.7266 L24.6336,76.5996 L24.9666,76.1366 L56.7176,31.2976 C59.4616,27.9786 60.9606,23.8056 60.9556,19.4996" id="Fill-13" fill="#0079FF" mask="url(#mask-2)"></path>
            <path d="M91.4184,3.1925 C90.9504,2.8695 90.4674,2.5705 89.9684,2.2965 C90.4674,2.5705 90.9504,2.8695 91.4184,3.1925" id="Fill-14" fill="#0022AC" mask="url(#mask-2)"></path>
            <path d="M86.7775,21.2729 L77.9485,33.7359 L77.9485,18.1119 C77.9535,15.3649 80.1835,13.1419 82.9295,13.1469 C85.6765,13.1509 87.8995,15.3809 87.8945,18.1279 C87.8935,19.2749 87.4945,20.3859 86.7675,21.2729 L86.7775,21.2729 Z M81.7445,0.4039 C71.4915,0.4039 63.1805,8.7149 63.1805,18.9679 L63.1805,53.9199 L53.7275,67.0069 C52.3255,69.0799 50.7055,70.9969 48.8955,72.7249 L48.7345,72.8759 C46.2815,75.1379 42.4605,74.9829 40.1995,72.5299 C39.2395,71.4889 38.6755,70.1429 38.6065,68.7289 C38.7245,77.3229 44.8635,84.6529 53.3045,86.2759 C56.8985,84.2959 60.0105,81.5459 62.4155,78.2219 L63.1705,77.1549 L96.0695,30.7659 C102.5855,22.8509 101.4515,11.1519 93.5365,4.6359 C90.2145,1.9009 86.0465,0.4059 81.7445,0.4039 Z" id="Fill-15" fill="#0079FF" mask="url(#mask-2)"></path>
            <path d="M83.7574,72.4736 C80.5384,72.4626 77.9374,69.8436 77.9484,66.6246 C77.9484,66.6216 77.9484,66.6176 77.9484,66.6146 L77.9484,66.8466 C77.9034,70.5066 78.9214,74.1016 80.8784,77.1946 C84.1834,82.8106 89.9604,86.5216 96.4414,87.1916 L96.4414,72.4636 L83.7574,72.4736 Z" id="Fill-16" fill="#0079FF" mask="url(#mask-2)"></path>
            <path d="M23.9695,70.549 C23.8475,69.16 23.8105,67.765 23.8585,66.371 L23.8585,54.774 L19.6205,60.653 L19.6205,66.371 C19.5765,67.758 19.6165,69.147 19.7415,70.529 C19.8275,73.784 20.7305,76.966 22.3685,79.78 L23.8585,77.717 L24.6545,76.589 L24.9865,76.126 C24.3775,74.327 24.0345,72.448 23.9695,70.549" id="Fill-17" fill="#0022AC" mask="url(#mask-2)"></path>
            <path d="M64.7308,75.0306 C64.5768,74.6476 64.4358,74.2586 64.3078,73.8626 C63.4598,70.7346 63.0868,67.4976 63.2008,64.2586 L63.2008,53.9206 L58.9418,59.7996 L58.9418,64.2586 C58.8248,67.5076 59.1988,70.7556 60.0498,73.8926 C60.5858,75.5166 61.3198,77.0686 62.2338,78.5136 L62.4258,78.2626 L63.1808,77.1946 L64.7308,75.0306 Z" id="Fill-18" fill="#0022AC" mask="url(#mask-2)"></path>
            <path d="M38.5969,14.689 L38.5969,17.387 L38.5969,14.689 Z" id="Fill-19" fill="#1DE0AD" mask="url(#mask-2)"></path>
            <path d="M53.3551,86.2956 C44.7941,84.6786 38.5961,77.1996 38.5971,68.4866 L38.5971,33.6246 L38.5971,17.5176 L38.5971,14.6586 L38.5971,14.5176 L38.5971,14.3766 L38.5971,13.5516 L38.5971,13.2396 L38.5971,12.9476 C39.4361,6.9286 44.9961,2.7306 51.0151,3.5696 C51.9111,3.6946 52.7881,3.9296 53.6271,4.2696 L53.5261,4.1896 C45.3661,-1.9714 33.7571,-0.3504 27.5961,7.8106 C25.1851,11.0046 23.8731,14.8946 23.8591,18.8966 L23.8591,65.8396 C23.8151,67.2266 23.8551,68.6146 23.9791,69.9976 C24.2431,80.7526 33.1751,89.2576 43.9301,88.9936 C47.2501,88.9126 50.4951,87.9836 53.3551,86.2956" id="Fill-20" fill="#1DE0AD" mask="url(#mask-2)"></path>
            <path d="M53.7074,4.2798 L53.6264,4.2798 C47.9684,2.0638 41.5844,4.8548 39.3684,10.5128 C39.0554,11.3128 38.8374,12.1468 38.7174,12.9978 L38.7174,13.2898 L38.7174,13.6018 L38.7174,14.4278 L38.7174,14.5678 L38.7174,14.7088 L38.7174,17.5678 L38.7174,17.7088 C38.7314,17.7988 38.7314,17.8908 38.7174,17.9808 C38.7824,15.8998 40.1424,14.0818 42.1204,13.4308 C44.5944,8.2848 50.7724,6.1188 55.9184,8.5938 C57.2494,9.2338 58.4284,10.1518 59.3754,11.2868 C58.0884,8.5218 56.1424,6.1158 53.7074,4.2798" id="Fill-21" fill="#0022AC" mask="url(#mask-2)"></path>
            <path d="M80.8682,77.2353 C78.9042,74.1303 77.8862,70.5203 77.9382,66.8463 L77.9382,54.1413 L77.9382,13.8733 L77.9382,14.3873 C78.0122,8.3053 83.0022,3.4343 89.0842,3.5073 C90.4182,3.5233 91.7372,3.7823 92.9792,4.2693 L92.8782,4.1893 C84.7222,-1.9767 73.1112,-0.3637 66.9452,7.7923 C64.5282,10.9913 63.2132,14.8873 63.2002,18.8973 L63.2002,30.4343 L63.2002,64.2693 C63.0842,67.5143 63.4572,70.7593 64.3082,73.8933 C66.2802,80.2543 71.4082,85.1383 77.8582,86.7993 C80.9252,87.2313 84.0232,87.4133 87.1202,87.3423 L96.4322,87.3423 L96.4322,87.2423 C89.9482,86.5693 84.1712,82.8543 80.8682,77.2353" id="Fill-22" fill="#1DE0AD" mask="url(#mask-2)"></path>
            <path d="M93.0593,4.2798 L92.9783,4.2798 C87.3153,2.0608 80.9253,4.8538 78.7073,10.5168 C78.2213,11.7568 77.9643,13.0748 77.9483,14.4068 L77.9483,13.8938 L77.9483,14.0248 L77.9483,17.6888 C77.9663,17.7788 77.9663,17.8708 77.9483,17.9608 C78.0133,15.8798 79.3733,14.0618 81.3513,13.4108 C83.8043,8.2548 89.9733,6.0638 95.1293,8.5168 C96.4913,9.1648 97.6953,10.1038 98.6563,11.2658 C97.3873,8.5168 95.4663,6.1188 93.0593,4.2798" id="Fill-23" fill="#0022AC" mask="url(#mask-2)"></path>
        </g>
    </g>
</svg>