<?xml version="1.0" encoding="UTF-8"?>
<svg width="189px" height="167px" viewBox="0 0 189 167" version="1.1" xmlns="http://www.w3.org/2000/svg" xmlns:xlink="http://www.w3.org/1999/xlink">
    <!-- Generator: Sketch 51.3 (57544) - http://www.bohemiancoding.com/sketch -->
    <title>leaflink_icon_fullcolor_rgb</title>
    <desc>Created with Sketch.</desc>
    <defs>
        <polygon id="path-1" points="0 0.563842332 114.649158 0.563842332 114.649158 164.8635 0 164.8635"></polygon>
        <polygon id="path-3" points="0.6086 0.3775 116.637 0.3775 116.637 161.8765 0.6086 161.8765"></polygon>
    </defs>
    <g id="leaflink_icon_fullcolor_rgb" stroke="none" stroke-width="1" fill="none" fill-rule="evenodd">
        <g id="Group-3" transform="translate(0.000000, -0.377000)">
            <mask id="mask-2" fill="white">
                <use xlink:href="#path-1"></use>
            </mask>
            <g id="Clip-2"></g>
            <path d="M89.1745,40.6255 L72.5895,64.0645 L72.5895,34.6805 C72.5975,29.5155 76.7915,25.3345 81.9565,25.3425 C87.1225,25.3505 91.3035,29.5445 91.2945,34.7095 C91.2915,36.8675 90.5425,38.9575 89.1745,40.6255 M114.6395,36.2895 C115.0885,17.0135 99.8255,1.0225 80.5495,0.5735 C61.2735,0.1245 45.2825,15.3875 44.8335,34.6635 C44.8205,35.2055 44.8205,35.7475 44.8335,36.2895 L44.8335,102.6695 L-0.0005,164.8635 L31.0875,164.8635 L44.8335,145.7985 L46.3295,143.6775 L46.9535,142.8075 L106.6685,58.4795 C111.8295,52.2375 114.6485,44.3895 114.6395,36.2895" id="Fill-1" fill="#0079FF" mask="url(#mask-2)"></path>
        </g>
        <path d="M166.0994,2.0451 C167.0464,2.4431 167.9924,2.8781 168.8824,3.3701 C167.9544,2.8781 167.0274,2.4241 166.0994,2.0451" id="Fill-4" fill="#0022AC"></path>
        <path d="M171.9307,5.2448 C171.0517,4.6368 170.1417,4.0748 169.2047,3.5598 C170.1417,4.0748 171.0517,4.6368 171.9307,5.2448" id="Fill-6" fill="#0022AC"></path>
        <g id="Group-10" transform="translate(72.000000, -0.377000)">
            <mask id="mask-4" fill="white">
                <use xlink:href="#path-3"></use>
            </mask>
            <g id="Clip-9"></g>
            <path d="M91.2026,39.6255 L74.5986,63.0645 L74.5986,33.6805 C74.6066,28.5155 78.8006,24.3345 83.9656,24.3425 C89.1316,24.3505 93.3126,28.5445 93.3046,33.7095 C93.3006,35.8675 92.5516,37.9575 91.1836,39.6255 L91.2026,39.6255 Z M81.7356,0.3775 C62.4546,0.3775 46.8236,16.0085 46.8236,35.2895 L46.8236,101.0255 L29.0456,125.6385 C26.4076,129.5365 23.3616,133.1415 19.9576,136.3925 L19.6546,136.6765 C15.0426,140.9285 7.8556,140.6375 3.6026,136.0245 C1.7976,134.0665 0.7376,131.5365 0.6086,128.8755 C0.8296,145.0395 12.3756,158.8245 28.2506,161.8765 C35.0096,158.1535 40.8616,152.9815 45.3846,146.7295 L46.8046,144.7225 L108.6776,57.4795 C120.9326,42.5935 118.7996,20.5905 103.9136,8.3365 C97.6666,3.1935 89.8276,0.3805 81.7356,0.3775 Z" id="Fill-8" fill="#0079FF" mask="url(#mask-4)"></path>
        </g>
        <path d="M157.5227,135.5418 C151.4687,135.5208 146.5777,130.5958 146.5987,124.5418 C146.5987,124.5358 146.5987,124.5288 146.5987,124.5228 L146.5987,124.9578 C146.5137,131.8418 148.4277,138.6028 152.1077,144.4218 C158.3237,154.9828 169.1887,161.9618 181.3787,163.2218 L181.3787,135.5228 L157.5227,135.5418 Z" id="Fill-11" fill="#0079FF"></path>
        <path d="M45.0795,131.9221 C44.8505,129.3101 44.7805,126.6861 44.8715,124.0651 L44.8715,102.2541 L36.9005,113.3111 L36.9005,124.0651 C36.8175,126.6731 36.8935,129.2851 37.1275,131.8841 C37.2895,138.0071 38.9885,143.9901 42.0695,149.2841 L44.8715,145.4021 L46.3665,143.2821 L46.9915,142.4111 C45.8465,139.0261 45.2025,135.4931 45.0795,131.9221" id="Fill-13" fill="#0022AC"></path>
        <path d="M121.7393,140.3508 C121.4493,139.6318 121.1843,138.8988 120.9443,138.1548 C119.3483,132.2718 118.6463,126.1838 118.8613,120.0928 L118.8613,100.6478 L110.8533,111.7048 L110.8533,120.0928 C110.6323,126.2028 111.3343,132.3108 112.9353,138.2118 C113.9443,141.2648 115.3243,144.1838 117.0443,146.9018 L117.4033,146.4278 L118.8233,144.4218 L121.7393,140.3508 Z" id="Fill-15" fill="#0022AC"></path>
        <path d="M72.5892,26.8663 L72.5892,31.9403 L72.5892,26.8663 Z" id="Fill-17" fill="#1DE0AD"></path>
        <path d="M100.345,161.5368 C84.245,158.4968 72.587,144.4288 72.589,128.0438 L72.589,62.4788 L72.589,32.1868 L72.589,26.8098 L72.589,26.5448 L72.589,26.2798 L72.589,24.7268 L72.589,24.1398 L72.589,23.5908 C74.168,12.2718 84.624,4.3758 95.943,5.9538 C97.629,6.1898 99.279,6.6318 100.856,7.2708 L100.667,7.1188 C85.32,-4.4672 63.486,-1.4172 51.9,13.9298 C47.365,19.9368 44.899,27.2528 44.871,34.7798 L44.871,123.0648 C44.788,125.6738 44.864,128.2848 45.098,130.8838 C45.594,151.1118 62.393,167.1068 82.62,166.6118 C88.864,166.4588 94.966,164.7118 100.345,161.5368" id="Fill-19" fill="#1DE0AD"></path>
        <path d="M101.0077,7.2895 L100.8567,7.2895 C90.2147,3.1215 78.2087,8.3705 74.0407,19.0115 C73.4517,20.5165 73.0407,22.0855 72.8167,23.6855 L72.8167,24.2345 L72.8167,24.8215 L72.8167,26.3735 L72.8167,26.6395 L72.8167,26.9045 L72.8167,32.2815 L72.8167,32.5465 C72.8427,32.7155 72.8427,32.8875 72.8167,33.0575 C72.9387,29.1435 75.4957,25.7235 79.2157,24.4995 C83.8697,14.8215 95.4877,10.7495 105.1657,15.4025 C107.6697,16.6075 109.8867,18.3335 111.6667,20.4665 C109.2477,15.2675 105.5867,10.7415 101.0077,7.2895" id="Fill-21" fill="#0022AC"></path>
        <path d="M152.0889,144.4971 C148.3949,138.6571 146.4799,131.8681 146.5789,124.9581 L146.5789,101.0651 L146.5789,25.3331 L146.5789,26.2981 C146.7179,14.8601 156.1029,5.6991 167.5409,5.8371 C170.0489,5.8681 172.5309,6.3531 174.8649,7.2701 L174.6759,7.1191 C159.3369,-4.4769 137.5009,-1.4429 125.9049,13.8961 C121.3579,19.9111 118.8859,27.2401 118.8619,34.7801 L118.8619,56.4771 L118.8619,120.1111 C118.6429,126.2151 119.3449,132.3171 120.9439,138.2111 C124.6539,150.1751 134.2979,159.3611 146.4279,162.4831 C152.1969,163.2961 158.0219,163.6381 163.8459,163.5061 L181.3589,163.5061 L181.3589,163.3161 C169.1659,162.0521 158.2999,155.0661 152.0889,144.4971" id="Fill-23" fill="#1DE0AD"></path>
        <path d="M175.0168,7.2895 L174.8658,7.2895 C164.2138,3.1165 152.1968,8.3685 148.0238,19.0195 C147.1108,21.3515 146.6268,23.8315 146.5988,26.3365 L146.5988,25.3705 L146.5988,25.6165 L146.5988,32.5085 C146.6318,32.6775 146.6318,32.8505 146.5988,33.0195 C146.7208,29.1055 149.2778,25.6855 152.9978,24.4615 C157.6118,14.7645 169.2128,10.6445 178.9098,15.2585 C181.4718,16.4775 183.7358,18.2425 185.5438,20.4295 C183.1568,15.2575 179.5428,10.7475 175.0168,7.2895" id="Fill-25" fill="#0022AC"></path>
    </g>
</svg>